<?xml version="1.0" encoding="UTF-8"?>
<svg xmlns="http://www.w3.org/2000/svg" viewBox="0 0 512 512">
<defs>
<linearGradient id="bg" x1="0" y1="0" x2="1" y2="1">
<stop offset="0%" stop-color="#111315"/><stop offset="100%" stop-color="#181B20"/>
</linearGradient>
<linearGradient id="cream" x1="0" y1="0" x2="1" y2="1">
<stop offset="0%" stop-color="#F2EFE9"/><stop offset="100%" stop-color="#D9D2C6"/>
</linearGradient>
<linearGradient id="bronze" x1="0" y1="0" x2="1" y2="1">
<stop offset="0%" stop-color="#B8824A"/><stop offset="100%" stop-color="#8F6238"/>
</linearGradient>
</defs>
<rect x="20" y="20" width="472" height="472" rx="92" fill="url(#bg)"/>
<rect x="20" y="20" width="472" height="472" rx="92" fill="none" stroke="#262B33" stroke-width="2"/>
<path d="M170 178H305C345 178 370 200 370 232C370 264 345 286 305 286H238" fill="none" stroke="url(#bronze)" stroke-width="34" stroke-linecap="round" stroke-linejoin="round"/>
<path d="M342 334H206C166 334 141 312 141 280C141 248 166 226 206 226H273" fill="none" stroke="url(#cream)" stroke-width="34" stroke-linecap="round" stroke-linejoin="round"/>
<path d="M248 206L292 256L248 306" fill="none" stroke="#111315" stroke-width="16" stroke-linecap="round" stroke-linejoin="round"/>
</svg>