<svg xmlns="http://www.w3.org/2000/svg" viewBox="0 0 1200 630">
  <defs>
    <linearGradient id="bg" x1="0" y1="0" x2="1" y2="1">
      <stop offset="0%" stop-color="#09090b"/>
      <stop offset="100%" stop-color="#18181b"/>
    </linearGradient>
    <linearGradient id="accent" x1="0" y1="0" x2="1" y2="0">
      <stop offset="0%" stop-color="#22d3ee"/>
      <stop offset="100%" stop-color="#06b6d4"/>
    </linearGradient>
  </defs>
  <rect width="1200" height="630" fill="url(#bg)"/>
  <rect x="40" y="40" width="1120" height="550" rx="20" fill="none" stroke="#27272a" stroke-width="1"/>
  <path d="M260 315c0-58 47-105 105-105h36c9 0 16 7 16 16v178c0 9-7 16-16 16h-36c-58 0-105-47-105-105z" fill="#22d3ee" opacity="0.9"/>
  <path d="M396 245l72 70-72 70" stroke="#22d3ee" stroke-width="12" stroke-linecap="round" stroke-linejoin="round" fill="none" opacity="0.9"/>
  <text x="500" y="310" font-family="system-ui, -apple-system, sans-serif" font-size="64" font-weight="800" fill="#fafafa">DevFlow</text>
  <text x="500" y="380" font-family="system-ui, -apple-system, sans-serif" font-size="64" font-weight="800" fill="#22d3ee">AI</text>
  <text x="500" y="440" font-family="system-ui, -apple-system, sans-serif" font-size="22" fill="#a1a1aa" font-weight="400">AI-Powered Development Assistant</text>
  <rect x="500" y="470" width="120" height="3" rx="1.5" fill="#22d3ee"/>
</svg>
